<svg xmlns="http://www.w3.org/2000/svg" width="745.059" height="591.052" data-name="Layer 1" viewBox="0 0 745.059 591.052"><path fill="#8b5cf6" d="M703.458 306.996c15.319-23.965 9.478-55.064-6.809-65.474s-46.964-2.655-62.282 21.31c-14.18 22.183-9.495 50.93 3.443 62.86a1.975 1.975 0 0 0-.704.256l-3.79 2.375a2 2 0 0 0 .022 3.402l8.136 4.958a2 2 0 0 0 3.034-1.54l.374-4.457a1.98 1.98 0 0 0-.026-.465c16.266 6.825 44.392-.994 58.602-23.225Z"/><path fill="#fff" d="M695.671 259.719a32.913 32.913 0 0 1-19.618 40.518c-1.782.687-1.008 3.589.798 2.893a36.009 36.009 0 0 0 21.713-44.209c-.559-1.842-3.455-1.057-2.893.798Z"/><path fill="#e6e6e6" d="M148.755 219.836c15.814-21.165 44.76-26.272 59.143-15.524s17.687 39.954 1.872 61.118c-14.638 19.59-41.16 24.932-55.768 17.593a1.835 1.835 0 0 1 .009.695l-.824 4.072a1.858 1.858 0 0 1-2.965 1.096l-6.974-5.449a1.858 1.858 0 0 1 .346-3.142l3.751-1.784a1.84 1.84 0 0 1 .413-.13c-11.26-11.903-13.674-38.913.997-58.545Z"/><path fill="#fff" d="M183.348 211.845a30.565 30.565 0 0 0-25.599 33.416c.17 1.785-2.618 1.773-2.787 0a33.42 33.42 0 0 1 27.645-36.103c1.754-.298 2.508 2.387.74 2.687Z"/><path fill="#f2f2f2" d="M546.792 518.65c12.43-19.445 7.691-44.679-5.524-53.126s-38.107-2.154-50.537 17.292c-11.505 17.999-7.704 41.324 2.794 51.005a1.603 1.603 0 0 0-.571.207l-3.075 1.927a1.623 1.623 0 0 0 .018 2.76l6.601 4.024a1.623 1.623 0 0 0 2.462-1.25l.303-3.617a1.608 1.608 0 0 0-.021-.377c13.198 5.538 36.02-.806 47.55-18.845Z"/><path fill="#3f3d56" d="M734.65 79.475H10.409A10.422 10.422 0 0 0 0 89.885v490.757a10.422 10.422 0 0 0 10.41 10.41h724.24a10.422 10.422 0 0 0 10.41-10.41V89.885a10.422 10.422 0 0 0-10.41-10.41Zm7.435 501.167a7.439 7.439 0 0 1-7.436 7.436H10.41a7.439 7.439 0 0 1-7.436-7.436V89.885a7.439 7.439 0 0 1 7.436-7.436h724.24a7.439 7.439 0 0 1 7.435 7.436Z"/><path fill="#3f3d56" d="M1.487 121.174h742.085v2.974H1.487z"/><circle cx="26.769" cy="101.782" r="8.923" fill="#3f3d56"/><circle cx="52.422" cy="101.782" r="8.923" fill="#3f3d56"/><circle cx="78.075" cy="101.782" r="8.923" fill="#3f3d56"/><circle cx="369.646" cy="244.289" r="30.354" fill="#2f2e41"/><path fill="#a0616a" d="m421.112 537.499-11.027 5.358-25.916-39.981 16.274-7.909 20.669 42.532z"/><path fill="#2f2e41" d="m400.678 543.534 21.265-10.334 6.507 13.39-34.655 16.84a14.887 14.887 0 0 1 6.883-19.896Zm-1.568-7.08a4.604 4.604 0 0 1-1.06-.124 4.68 4.68 0 0 1-3.091-2.46l-29.59-58.646a4.858 4.858 0 0 1 1.181-5.858l16.478-13.86a4.553 4.553 0 0 1 4.087-.95 4.65 4.65 0 0 1 3.209 2.833l25.292 63.507a4.812 4.812 0 0 1-1.587 5.654l-12.18 8.999a4.607 4.607 0 0 1-2.739.905Z"/><path fill="#a0616a" d="m388.604 565.706-11.297 4.761-23.741-41.31 16.674-7.027 18.364 43.576z"/><path fill="#2f2e41" d="m367.877 570.64 21.788-9.182 5.781 13.719-35.506 14.963a14.887 14.887 0 0 1 7.937-19.5Zm2.727-5.066a4.486 4.486 0 0 1-3.908-2.281c-4.113-7.285-15.25-27.535-29.797-58.161-17.265-36.348 20.976-76.633 28.817-84.34a3.49 3.49 0 0 0 1.033-2.683l-1.698-30.571a4.49 4.49 0 0 1 3.773-4.69l45.153-7.326a4.54 4.54 0 0 1 4.215 1.596c7.628 9.26 10.905 19.22 9.74 29.607-2.378 21.206-22.356 37.217-24.626 38.973a3.171 3.171 0 0 0-.265.228l-40.873 38.972a3.48 3.48 0 0 0-.826 3.854l25.286 62.065a4.487 4.487 0 0 1-1.533 5.346l-11.85 8.557a4.511 4.511 0 0 1-2.64.854Z"/><path fill="#a0616a" d="M331.044 355.35a4.503 4.503 0 0 1-2.788-.96l-36.435-28.633a10.249 10.249 0 0 1-1.037.304 11 11 0 1 1 8.191-13.224 10.628 10.628 0 0 1 .23 1.45l31.146 22.63 11.907-12.207 11.711 15.332-20.314 14.478a4.492 4.492 0 0 1-2.611.83Z"/><circle cx="365.965" cy="257.791" r="24.561" fill="#a0616a"/><path fill="#8b5cf6" d="M377.561 402.629a16.148 16.148 0 0 1-5.849-1.047 13.048 13.048 0 0 1-6.6-5.68c-7.585-13.236-23.937-54.253-8.709-84.709 10.254-20.508 21.596-25.383 29.306-25.862 7.118-.44 8.497 1.136 10.875 7.54 1.319 3.552 3.884 8.629 6.854 14.508 10.663 21.105 26.776 53 13.293 68.862-14.557 17.126-28.44 26.387-39.17 26.388Z"/><path fill="#8b5cf6" d="M357.666 344.798a3.277 3.277 0 0 1-1.99-.674l-19.145-14.61a3.284 3.284 0 0 1-.286-4.976l18.4-17.724a7.988 7.988 0 0 1 13.282 7.724l-7.075 27.785a3.286 3.286 0 0 1-3.186 2.475Z"/><path fill="#a0616a" d="M375.22 385.035a11.03 11.03 0 0 1-10.535-7.93 11.004 11.004 0 0 1 8.708-13.918 10.74 10.74 0 0 1 1.464-.139l32.494-40.131-10.851-11.69 16.022-10.749 13.204 21.165a4.522 4.522 0 0 1-.463 5.38l-39.413 44.1a10.228 10.228 0 0 1 .24 1.052 11.003 11.003 0 0 1-10.231 12.84c-.213.013-.427.02-.64.02Z"/><path fill="#8b5cf6" d="M396.871 321.214a3.291 3.291 0 0 1-2.797-1.562l-13.406-21.747a8.017 8.017 0 0 1 .523-9.133 8.02 8.02 0 0 1 9.848-2.204l25.646 12.822a3.284 3.284 0 0 1 .658 5.44l-18.345 15.6a3.283 3.283 0 0 1-2.127.784Z"/><path fill="#3f3d56" d="m345.96 283.431 17.236-10.617-1.26-2.047-16.229 9.996a4.807 4.807 0 1 0 .253 2.668Z"/><path fill="#2f2e41" d="M383 219.855s-11.513 11.308-36.504 14.878-5.355 42.842-5.355 42.842-7.14-14.28 7.14-26.776S383 235.92 383 219.855Z"/><path fill="#2f2e41" d="M370.763 211.855s7.14 24.992 17.851 28.562 5.356 41.057-12.495 44.627c0 0 15.173-20.528 6.247-36.594s-14.28-28.562-11.603-36.595Z"/><path fill="#8b5cf6" d="M387.41 230.322a2.87 2.87 0 0 1-.326-.09l-27.986-9.555a2.752 2.752 0 0 1-.973-4.63l22.427-20.605a2.751 2.751 0 0 1 4.568 1.527l5.56 30.16a2.752 2.752 0 0 1-3.27 3.193Z"/><path fill="#e6e6e6" d="m374.411 201.83 11.494 2.446-.622-3.38-8-1.703-2.872 2.637zm-2.389 2.198 14.404 3.065.623 3.38-17.899-3.809 2.872-2.636z"/><path fill="#ccc" d="m369.872 179.76 3.667 11.344a1.533 1.533 0 0 0 1.845 1.047 1.516 1.516 0 0 0 1.048-1.845l-3.667-11.344a1.533 1.533 0 0 0-1.846-1.048 1.516 1.516 0 0 0-1.047 1.845Zm17.812-3.85-3.494 11.879c-.546 1.856 2.348 2.649 2.892.797l3.495-11.878c.546-1.856-2.349-2.648-2.893-.797Zm12.927 10.876-8.64 8.868c-1.35 1.385.837 3.439 2.184 2.057l8.64-8.868c1.351-1.385-.837-3.439-2.184-2.057Z"/><path fill="#fff" d="M540.474 480.29a26.706 26.706 0 0 1-15.918 32.876c-1.447.557-.818 2.912.647 2.347a29.218 29.218 0 0 0 17.618-35.87c-.453-1.496-2.803-.858-2.347.647Z"/><path fill="#e6e6e6" d="M625.458 69.996c15.319-23.965 9.478-55.064-6.809-65.474s-46.964-2.655-62.282 21.31c-14.18 22.183-9.495 50.93 3.443 62.86a1.975 1.975 0 0 0-.704.256l-3.79 2.375a2 2 0 0 0 .022 3.402l8.136 4.958a2 2 0 0 0 3.034-1.54l.374-4.457a1.98 1.98 0 0 0-.026-.465c16.266 6.825 44.392-.994 58.602-23.225Z"/><path fill="#fff" d="M617.671 22.719a32.913 32.913 0 0 1-19.618 40.518c-1.782.687-1.008 3.589.798 2.893a36.009 36.009 0 0 0 21.713-44.209c-.559-1.842-3.455-1.057-2.893.798Z"/><path fill="#8b5cf6" d="M203.718 58.52c-17.026-22.785-48.186-28.283-63.67-16.713s-19.042 43.013-2.017 65.797c15.76 21.09 44.311 26.841 60.037 18.94a1.975 1.975 0 0 0-.009.749l.887 4.383a2 2 0 0 0 3.191 1.18l7.508-5.866a2 2 0 0 0-.372-3.382l-4.038-1.921a1.98 1.98 0 0 0-.445-.14c12.122-12.815 14.721-41.892-1.072-63.028Z"/><path fill="#fff" d="M166.477 49.917a32.904 32.904 0 0 1 27.558 35.975c-.183 1.92 2.818 1.908 3 0a35.979 35.979 0 0 0-29.761-38.868c-1.888-.32-2.7 2.57-.797 2.893Z"/><path fill="#8b5cf6" d="M135.368 372.023a47.2 47.2 0 0 1 36.918 21.868c1.118 1.787 2.577 3.75 1.803 5.95a3.912 3.912 0 0 1-4.053 2.706c-2.281-.277-3.753-2.509-4.034-4.647-.319-2.426 1.392-4.33 3.505-5.231 5.163-2.202 10.371 1.201 14.577 3.917 9.582 6.19 20.122 11.787 31.733 12.492 10.743.652 22.263-3.56 28.238-12.876 1.046-1.63-1.55-3.136-2.59-1.514-5.926 9.24-17.906 12.557-28.323 11.13a55.06 55.06 0 0 1-17.722-6.017c-2.863-1.486-5.64-3.133-8.36-4.865a53.35 53.35 0 0 0-8.2-4.7c-4.782-1.965-11.112-1.811-14.452 2.71-3.116 4.22-.708 11.244 4.504 12.43 4.939 1.124 9.266-3.521 8.249-8.378-.52-2.485-2.39-4.916-3.839-6.947a50.204 50.204 0 0 0-37.954-21.028c-1.93-.096-1.925 2.905 0 3Z"/><path fill="#ff6584" d="M584.766 369.457a47.117 47.117 0 0 1-44.635-.15c-1.551-.856-2.855-1.831-3.03-3.726a3.896 3.896 0 0 1 2.05-3.897c2.154-1.052 4.717.175 6.063 1.97 1.448 1.932.869 4.437-.471 6.256-3.465 4.703-10.016 4.257-15.198 4.152-11.163-.225-22.899.667-32.898 6.09-9.396 5.094-16.942 14.652-17.15 25.649-.037 1.931 2.963 1.931 3 0 .205-10.852 8.407-19.795 17.85-24.15a53.686 53.686 0 0 1 18.507-4.356c3.114-.232 6.238-.293 9.36-.255a62.908 62.908 0 0 0 9.338-.2c5.354-.733 11.11-4.182 11.505-10.136.358-5.389-5.764-9.96-10.81-7.883a7.032 7.032 0 0 0-3.034 10.226c1.35 2.056 3.749 3.108 5.898 4.126a50.115 50.115 0 0 0 45.17-1.125c1.692-.93.18-3.52-1.515-2.59Z"/><path fill="#e6e6e6" d="M449.241 174.93c13.496 4.643 22.946 18.323 23.749 32.408.407 7.15-1.289 15.414-6.622 20.559a10.328 10.328 0 0 1-9.348 3.073c-2.945-.64-6.017-2.648-6.52-5.838-.487-3.08 1.618-5.627 4.171-7.03a12.25 12.25 0 0 1 9.552-.907c4.165 1.294 7.69 4.071 11.053 6.75a81.606 81.606 0 0 0 10.434 7.358 63.968 63.968 0 0 0 86.528-22.108q1.583-2.564 2.903-5.275c.847-1.727-1.74-3.25-2.59-1.514a61.035 61.035 0 0 1-89.106 23.97c-6.983-4.679-13.679-12.718-22.761-12.775-6.688-.042-14.732 5.013-13.018 12.622.78 3.461 3.705 5.955 6.911 7.154a12.579 12.579 0 0 0 10.606-.87c7.082-3.978 10.175-12.806 10.763-20.478 1.154-15.074-7.367-30.708-20.756-37.776a36.393 36.393 0 0 0-5.151-2.215c-1.83-.63-2.616 2.268-.798 2.893Z"/></svg>